<svg t="1730950914409" class="icon" viewBox="0 0 1024 1024" version="1.1" xmlns="http://www.w3.org/2000/svg" p-id="14087" xmlns:xlink="http://www.w3.org/1999/xlink" width="200" height="200"><path d="M512 725.333333a170.666667 170.666667 0 0 0 170.666667-170.666666h-85.333334a85.333333 85.333333 0 1 1-170.666666 0H341.333333a170.666667 170.666667 0 0 0 170.666667 170.666666zM277.333333 85.333333a192 192 0 0 0-125.866666 336.981334 384 384 0 1 0 721.109333 0 192 192 0 1 0-289.706667-245.12 385.877333 385.877333 0 0 0-141.696 0A191.829333 191.829333 0 0 0 277.333333 85.333333zM170.666667 277.333333a106.666667 106.666667 0 0 1 207.018666-36.309333l13.568 37.461333 38.314667-10.965333A298.837333 298.837333 0 0 1 512 256c28.672 0 56.32 4.010667 82.432 11.52l38.314667 10.965333 13.568-37.461333a106.709333 106.709333 0 1 1 152.746666 129.28l-34.730666 19.626667 17.237333 35.925333a298.666667 298.666667 0 1 1-539.093333 0l17.194666-35.968-34.730666-19.626667A106.624 106.624 0 0 1 170.666667 277.333333z" fill="currentColor" p-id="14088"></path></svg>