<svg t="1710472412593" class="icon" viewBox="0 0 1024 1024" version="1.1" xmlns="http://www.w3.org/2000/svg" p-id="2183" width="200" height="200"><path d="M930.8 768.3c-19.5-24.8-53.1-28.4-70.9-24.8-29.8 6-59.3 28.8-71.8 39.4h-14.8c7.8-8.5 15.1-17 21.8-25.6 19.6-25.2 33-49.2 42-71.5 2.7 0.3 5.4 0.5 8.2 0.5 45.7 0 82.9-40.3 82.9-89.8s-37.2-89.8-82.9-89.8c-7.8 0-15.5 1.2-23 3.5-19.3-28.7-46.8-51.8-79-66.6 14.6-31.5 22.3-66 22.3-100.9 0-27.3-4.6-53.6-13.2-78.2 40.4-14.3 68.7-52.7 68.7-97.5 0-57.1-46.4-103.5-103.5-103.5-40.4 0-76.5 23.7-93.4 59-33.6-16-71.3-25.1-111.2-25.1-39.9 0-77.6 9-111.2 25.1-16.9-35.2-53-59-93.4-59-57.1 0-103.5 46.4-103.5 103.5 0 44.1 28.1 83 68.7 97.5-8.5 24.6-13.2 50.9-13.2 78.3 0 34.9 7.7 69.3 22.3 100.9-32.2 14.8-59.7 37.9-79 66.7-7.4-2.3-15.1-3.6-23-3.6-45.7 0-82.9 40.3-82.9 89.8s37.2 89.8 82.9 89.8c2.8 0 5.5-0.2 8.2-0.5 8.9 22.3 22.4 46.3 42 71.5 6.7 8.6 14 17.2 21.8 25.6h-14.8c-12.5-10.6-41.9-33.4-71.8-39.4-17.8-3.6-51.4 0.1-70.9 24.8-13.3 16.9-23.8 48.8 2.2 104.4 42.4 90.8 158.5 87.3 169.4 86.7 0 0 496 0.2 499.6 0.2 28.6 0 124.4-6.2 162.1-86.9 26-55.7 15.6-87.5 2.3-104.5z" fill="#E66978" p-id="2184"></path><path d="M810.9 579.4c-14.4-65.9-79.4-115.6-151.3-115.6-51.5 0-98 25.2-131 71-3.6 5-9.4 8-15.6 8-6.2 0-12-3-15.6-8-33-45.8-79.5-71-131-71-71.9 0-137 49.7-151.3 115.6-24.2 110.9 87.1 235.2 297.9 333.4 210.9-98.2 322.1-222.5 297.9-333.4z" fill="#FFAEBF" p-id="2185"></path><path d="M845.3 545.2c24.5 0 44.4 23 44.4 51.3 0 27-18.2 49.1-41.1 51.1 6.1-30.2 4.3-56.2-0.1-76.4-1.9-8.8-4.6-17.4-7.8-25.7 1.5-0.2 3.1-0.3 4.6-0.3zM177.5 571.2c-4.4 20.2-6.2 46.2-0.1 76.4-23-2-41.1-24.1-41.1-51.1 0-28.3 19.9-51.3 44.4-51.3 1.5 0 3.1 0.1 4.6 0.3-3.2 8.3-5.8 16.9-7.8 25.7z" fill="#FFD976" p-id="2186"></path><path d="M215.1 579.4c14.4-65.9 79.4-115.6 151.3-115.6 51.5 0 98 25.2 131 71 3.6 5 9.4 8 15.6 8 6.2 0 12-3 15.6-8 33-45.8 79.5-71 131-71 71.9 0 136.9 49.7 151.3 115.6 24.2 110.9-87.1 235.2-297.9 333.4-210.8-98.2-322.1-222.5-297.9-333.4z" fill="#FFAEBF" p-id="2187"></path><path d="M717.6 102c35.9 0 65.1 29.2 65.1 65.1 0 29.1-19 54-45.8 62.2-18.9-34.9-46.1-65-79.2-87.5 10-23.6 33.5-39.8 59.9-39.8zM513 135.9c118.1 0 214.2 92.8 214.2 206.9 0 30.5-7 60.8-20.4 88.2-15.2-3.7-31-5.6-47.1-5.6-56.3 0-107.6 23.8-146.6 67.5-39-43.7-90.3-67.5-146.6-67.5-16.2 0-32 2-47.2 5.6-13.4-27.4-20.4-57.6-20.4-88.2 0-114.1 96-206.9 214.1-206.9zM243.4 167.1c0-35.9 29.2-65.1 65.1-65.1 26.4 0 49.9 16.1 59.9 39.8-33.1 22.5-60.3 52.5-79.2 87.4-26.9-8.3-45.8-33.4-45.8-62.1zM265.2 921c-1 0.1-100.2 5.3-132.9-64.6-13.8-29.6-16.2-52.4-6.8-64.4 8.4-10.7 25.7-12.4 33.1-10.9 22.4 4.5 50.1 26.8 58.9 35 3.6 3.3 8.3 5.2 13.1 5.2h62c40.4 35 90.7 68.3 150.3 99.7H265.2zM893.7 856.5c-32.4 69.5-131.9 64.6-132.9 64.6H583.1c59.6-31.4 109.9-64.7 150.3-99.7h62c4.9 0 9.6-1.9 13.1-5.2 8.8-8.2 36.6-30.5 59-35 7.4-1.5 24.6 0.2 33.1 10.9 9.3 11.9 6.9 34.8-6.9 64.4z" fill="#FFD976" p-id="2188"></path><path d="M513 442c60.3 0 109.3-41.9 109.3-93.3 0-51.5-49-93.3-109.3-93.3s-109.3 41.9-109.3 93.3S452.7 442 513 442z" fill="#E66978" p-id="2189"></path><path d="M513 293.8c39.1 0 70.9 24.6 70.9 54.9 0 30.3-31.8 54.9-70.9 54.9-39.1 0-70.9-24.6-70.9-54.9 0.1-30.3 31.8-54.9 70.9-54.9z" fill="#FFF4E5" p-id="2190"></path><path d="M427.8 272.6c5.1 0 10-2.1 13.6-5.6 3.6-3.6 5.6-8.5 5.6-13.6s-2.1-10-5.6-13.6c-3.6-3.6-8.5-5.6-13.6-5.6s-10 2-13.6 5.6c-3.6 3.6-5.6 8.5-5.6 13.6s2.1 10 5.6 13.6c3.6 3.6 8.5 5.6 13.6 5.6zM603.1 272.6c5.1 0 10-2.1 13.6-5.6 3.6-3.6 5.6-8.5 5.6-13.6s-2.1-10-5.6-13.6c-3.6-3.6-8.5-5.6-13.6-5.6-5 0-10 2-13.6 5.6-3.6 3.6-5.6 8.5-5.6 13.6s2.1 10 5.6 13.6c3.6 3.6 8.5 5.6 13.6 5.6z" fill="#E66978" p-id="2191"></path></svg>